# xmcd
#
# Track frame offsets:
#   150
#   25394
#   44462
#   64529
#   81918
#   97963
#   113852
#   133422
#   156965
#   174848
#   187367
#   201796
#   219579
#   238369
#
# Disc length: 3454 seconds
#
# Revision: 0
# Processed by: cddbd v1.5.2PL0 Copyright (c) Steve Scherf et al.
# Submitted via: uFREEDB 1.6.0
#
DISCID=cf0d7c0e
DTITLE=JJ Cale and Eric Clapton - Escondido
DYEAR=2006
DGENRE=blues
TTITLE0=Danger
TTITLE1=Heads In Georgia
TTITLE2=Missing Person
TTITLE3=When This War Is Over
TTITLE4=Sporting Life Blues
TTITLE5=Dead End Road
TTITLE6=It's Easy
TTITLE7=Hard Tho Thrill
TTITLE8=Anyway The Wind Blows
TTITLE9=Three Littel Girls
TTITLE10=Don't Cry Sister
TTITLE11=Last Will And Testament
TTITLE12=Who Am I Telling You
TTITLE13=Ride The River
EXTD=
EXTT0=
EXTT1=
EXTT2=
EXTT3=
EXTT4=
EXTT5=
EXTT6=
EXTT7=
EXTT8=
EXTT9=
EXTT10=
EXTT11=
EXTT12=
EXTT13=
PLAYORDER=
